<svg width="19" height="19" viewBox="0 0 19 19" fill="none" xmlns="http://www.w3.org/2000/svg">

<path d="M16.656 14L10.656 3.5C10.5251 3.26915 10.3354 3.07714 10.1062 2.94355C9.8769 2.80996 9.61631 2.73958 9.35097 2.73958C9.08563 2.73958 8.82503 2.80996 8.59577 2.94355C8.36652 3.07714 8.17679 3.26915 8.04597 3.5L2.04597 14C1.91373 14.229 1.84439 14.4889 1.84497 14.7534C1.84556 15.0178 1.91605 15.2774 2.0493 15.5059C2.18255 15.7343 2.37383 15.9234 2.60374 16.0541C2.83365 16.1848 3.09402 16.2524 3.35847 16.25H15.3585C15.6216 16.2497 15.8801 16.1802 16.1079 16.0485C16.3357 15.9167 16.5249 15.7273 16.6564 15.4993C16.7878 15.2714 16.857 15.0128 16.8569 14.7496C16.8569 14.4864 16.7876 14.2279 16.656 14Z" stroke="#856404" stroke-width="1.5" stroke-linecap="round" stroke-linejoin="round"/>
<path d="M9.35852 7.25V10.25" stroke="#856404" stroke-width="1.5" stroke-linecap="round" stroke-linejoin="round"/>
<path d="M9.35852 13.25H9.36602" stroke="#856404" stroke-width="1.5" stroke-linecap="round" stroke-linejoin="round"/>
</svg>
