<svg width="25" height="25" viewBox="0 0 25 25" fill="none" xmlns="http://www.w3.org/2000/svg">

<path d="M16.7585 14.2C17.5787 13.5836 18.2413 12.7818 18.6922 11.8602C19.143 10.9386 19.3693 9.92341 19.3526 8.89757C19.3358 7.87173 19.0764 6.86444 18.5957 5.95806C18.1149 5.05169 17.4265 4.272 16.5866 3.68275C15.7467 3.0935 14.7792 2.71144 13.7634 2.56781C12.7475 2.42418 11.7121 2.52307 10.7417 2.85638C9.77141 3.1897 8.89377 3.74797 8.18059 4.48554C7.46742 5.22311 6.93898 6.11903 6.63848 7.10001C5.53848 10.23 5.85848 11 3.45848 13.18C2.98024 13.5721 2.63485 14.1024 2.46959 14.6983C2.30432 15.2942 2.32725 15.9266 2.53525 16.509C2.74324 17.0914 3.12613 17.5953 3.63151 17.9517C4.13689 18.3081 4.74007 18.4996 5.35848 18.5C9.35848 18.5 13.7585 16.7 16.7585 14.2Z" stroke="#6C757D" stroke-width="2" stroke-linecap="round" stroke-linejoin="round"/>
<path d="M18.8585 6.5L21.0485 11C21.4677 12.2889 21.4723 13.6767 21.0615 14.9683C20.6507 16.2598 19.8453 17.3901 18.7585 18.2C15.7585 20.7 11.3585 22.5 7.35854 22.5C6.80179 22.4992 6.25624 22.3436 5.78293 22.0504C5.30962 21.7572 4.92723 21.3381 4.67854 20.84L2.75854 17" stroke="#6C757D" stroke-width="2" stroke-linecap="round" stroke-linejoin="round"/>
<path d="M12.8585 11.5C14.2392 11.5 15.3585 10.3807 15.3585 9C15.3585 7.61929 14.2392 6.5 12.8585 6.5C11.4778 6.5 10.3585 7.61929 10.3585 9C10.3585 10.3807 11.4778 11.5 12.8585 11.5Z" stroke="#6C757D" stroke-width="2" stroke-linecap="round" stroke-linejoin="round"/>
</svg>
