<svg width="25" height="25" viewBox="0 0 25 25" fill="none" xmlns="http://www.w3.org/2000/svg">

<path d="M8.99854 14.5L6.94854 12.46M15.6985 15.5L13.2385 13.04M2.62854 22.2C2.62854 22.2 12.4985 18.7 15.3585 15.84C15.7768 15.4224 16.1087 14.9265 16.3353 14.3806C16.5619 13.8347 16.6788 13.2496 16.6793 12.6585C16.6797 12.0675 16.5638 11.4821 16.338 10.9359C16.1123 10.3897 15.7811 9.89326 15.3635 9.475C14.9459 9.05674 14.45 8.72483 13.9042 8.49822C13.3583 8.27161 12.7731 8.15473 12.1821 8.15427C11.591 8.1538 11.0057 8.26976 10.4595 8.49551C9.91322 8.72127 9.4168 9.0524 8.99854 9.47C6.12854 12.34 2.62854 22.2 2.62854 22.2Z" stroke="#6C757D" stroke-width="2" stroke-linecap="round" stroke-linejoin="round"/>
<path d="M22.3585 9.5C22.3585 9.5 21.0285 7.5 18.8585 7.5C17.2185 7.5 15.3585 9.5 15.3585 9.5C15.3585 9.5 16.6885 11.5 18.8585 11.5C21.0285 11.5 22.3585 9.5 22.3585 9.5Z" stroke="#6C757D" stroke-width="2" stroke-linecap="round" stroke-linejoin="round"/>
<path d="M15.3585 2.5C15.3585 2.5 13.3585 3.83 13.3585 6C13.3585 8.17 15.3585 9.5 15.3585 9.5C15.3585 9.5 17.3585 7.66 17.3585 6C17.3585 3.83 15.3585 2.5 15.3585 2.5Z" stroke="#6C757D" stroke-width="2" stroke-linecap="round" stroke-linejoin="round"/>
</svg>
