<svg width="25" height="25" viewBox="0 0 25 25" fill="none" xmlns="http://www.w3.org/2000/svg">

<path d="M15.3585 21.5V13.5C15.3585 13.2348 15.2532 12.9804 15.0656 12.7929C14.8781 12.6054 14.6237 12.5 14.3585 12.5H10.3585C10.0933 12.5 9.83895 12.6054 9.65141 12.7929C9.46388 12.9804 9.35852 13.2348 9.35852 13.5V21.5" stroke="#6C757D" stroke-width="2" stroke-linecap="round" stroke-linejoin="round"/>
<path d="M3.35852 10.5C3.35845 10.2091 3.42185 9.92165 3.54431 9.65775C3.66676 9.39384 3.84532 9.15983 4.06752 8.97203L11.0675 2.97303C11.4285 2.66794 11.8859 2.50055 12.3585 2.50055C12.8312 2.50055 13.2885 2.66794 13.6495 2.97303L20.6495 8.97203C20.8717 9.15983 21.0503 9.39384 21.1727 9.65775C21.2952 9.92165 21.3586 10.2091 21.3585 10.5V19.5C21.3585 20.0305 21.1478 20.5392 20.7727 20.9142C20.3977 21.2893 19.889 21.5 19.3585 21.5H5.35852C4.82809 21.5 4.31938 21.2893 3.94431 20.9142C3.56923 20.5392 3.35852 20.0305 3.35852 19.5V10.5Z" stroke="#6C757D" stroke-width="2" stroke-linecap="round" stroke-linejoin="round"/>
</svg>
