<svg width="25" height="25" viewBox="0 0 25 25" fill="none" xmlns="http://www.w3.org/2000/svg">

<path d="M8.35852 2.5H16.3585" stroke="#6C757D" stroke-width="2" stroke-linecap="round" stroke-linejoin="round"/>
<path d="M9.35852 2.5V5.289C9.3585 6.07879 9.12468 6.8509 8.68652 7.508L8.03052 8.492C7.59218 9.14939 7.35834 9.92187 7.35852 10.712V20.5C7.35852 21.0304 7.56923 21.5391 7.94431 21.9142C8.31938 22.2893 8.82809 22.5 9.35852 22.5H15.3585C15.889 22.5 16.3977 22.2893 16.7727 21.9142C17.1478 21.5391 17.3585 21.0304 17.3585 20.5V10.711C17.3585 9.92121 17.1247 9.1491 16.6865 8.492L16.0305 7.508C15.5922 6.85061 15.3583 6.07813 15.3585 5.288V2.5" stroke="#6C757D" stroke-width="2" stroke-linecap="round" stroke-linejoin="round"/>
<path d="M7.35852 15.5C8.15029 15.1684 9.00012 14.9977 9.85852 14.9977C10.7169 14.9977 11.5667 15.1684 12.3585 15.5C13.1503 15.8317 14.0001 16.0025 14.8585 16.0025C15.7169 16.0025 16.5668 15.8317 17.3585 15.5" stroke="#6C757D" stroke-width="2" stroke-linecap="round" stroke-linejoin="round"/>
</svg>
