<svg width="19" height="18" viewBox="0 0 19 18" fill="none" xmlns="http://www.w3.org/2000/svg">

<path d="M10.8585 16.5V13.5C10.8585 13.1022 10.7005 12.7206 10.4192 12.4393C10.1379 12.158 9.75635 12 9.35852 12C8.9607 12 8.57917 12.158 8.29786 12.4393C8.01656 12.7206 7.85852 13.1022 7.85852 13.5V16.5" stroke="#6C757D" stroke-width="1.5" stroke-linecap="round" stroke-linejoin="round"/>
<path d="M13.8585 7.5L16.4438 8.793C16.5683 8.85524 16.6731 8.95093 16.7464 9.06936C16.8196 9.18778 16.8584 9.32425 16.8585 9.4635V15C16.8585 15.3978 16.7005 15.7794 16.4192 16.0607C16.1379 16.342 15.7563 16.5 15.3585 16.5H3.35852C2.9607 16.5 2.57916 16.342 2.29786 16.0607C2.01656 15.7794 1.85852 15.3978 1.85852 15V9.4635C1.85859 9.32425 1.89743 9.18778 1.97068 9.06936C2.04394 8.95093 2.14871 8.85524 2.27327 8.793L4.85852 7.5" stroke="#6C757D" stroke-width="1.5" stroke-linecap="round" stroke-linejoin="round"/>
<path d="M13.8585 3.75V16.5" stroke="#6C757D" stroke-width="1.5" stroke-linecap="round" stroke-linejoin="round"/>
<path d="M3.35852 4.5L8.68802 1.83525C8.89622 1.73121 9.12577 1.67705 9.35852 1.67705C9.59127 1.67705 9.82082 1.73121 10.029 1.83525L15.3585 4.5" stroke="#6C757D" stroke-width="1.5" stroke-linecap="round" stroke-linejoin="round"/>
<path d="M4.85852 3.75V16.5" stroke="#6C757D" stroke-width="1.5" stroke-linecap="round" stroke-linejoin="round"/>
<path d="M9.35852 8.25C10.1869 8.25 10.8585 7.57843 10.8585 6.75C10.8585 5.92157 10.1869 5.25 9.35852 5.25C8.53009 5.25 7.85852 5.92157 7.85852 6.75C7.85852 7.57843 8.53009 8.25 9.35852 8.25Z" stroke="#6C757D" stroke-width="1.5" stroke-linecap="round" stroke-linejoin="round"/>
</svg>
