<svg width="25" height="25" viewBox="0 0 25 25" fill="none" xmlns="http://www.w3.org/2000/svg">

<path d="M12.2451 2.5H11.8051C11.2747 2.5 10.766 2.71071 10.3909 3.08579C10.0159 3.46086 9.80515 3.96957 9.80515 4.5V4.68C9.80479 5.03073 9.71221 5.37519 9.53669 5.67884C9.36117 5.98248 9.10889 6.23464 8.80515 6.41L8.37515 6.66C8.07111 6.83554 7.72622 6.92795 7.37515 6.92795C7.02407 6.92795 6.67919 6.83554 6.37515 6.66L6.22515 6.58C5.76621 6.31526 5.22099 6.24344 4.70915 6.38031C4.19732 6.51717 3.7607 6.85154 3.49515 7.31L3.27515 7.69C3.01041 8.14893 2.93859 8.69416 3.07546 9.206C3.21232 9.71783 3.54668 10.1544 4.00515 10.42L4.15515 10.52C4.45742 10.6945 4.70877 10.9451 4.8842 11.2468C5.05963 11.5486 5.15304 11.891 5.15515 12.24V12.75C5.15655 13.1024 5.0648 13.449 4.88919 13.7545C4.71359 14.0601 4.46036 14.3138 4.15515 14.49L4.00515 14.58C3.54668 14.8456 3.21232 15.2822 3.07546 15.794C2.93859 16.3058 3.01041 16.8511 3.27515 17.31L3.49515 17.69C3.7607 18.1485 4.19732 18.4828 4.70915 18.6197C5.22099 18.7566 5.76621 18.6847 6.22515 18.42L6.37515 18.34C6.67919 18.1645 7.02407 18.0721 7.37515 18.0721C7.72622 18.0721 8.07111 18.1645 8.37515 18.34L8.80515 18.59C9.10889 18.7654 9.36117 19.0175 9.53669 19.3212C9.71221 19.6248 9.80479 19.9693 9.80515 20.32V20.5C9.80515 21.0304 10.0159 21.5391 10.3909 21.9142C10.766 22.2893 11.2747 22.5 11.8051 22.5H12.2451C12.7756 22.5 13.2843 22.2893 13.6594 21.9142C14.0344 21.5391 14.2451 21.0304 14.2451 20.5V20.32C14.2455 19.9693 14.3381 19.6248 14.5136 19.3212C14.6891 19.0175 14.9414 18.7654 15.2451 18.59L15.6751 18.34C15.9792 18.1645 16.3241 18.0721 16.6751 18.0721C17.0262 18.0721 17.3711 18.1645 17.6751 18.34L17.8251 18.42C18.2841 18.6847 18.8293 18.7566 19.3411 18.6197C19.853 18.4828 20.2896 18.1485 20.5551 17.69L20.7751 17.3C21.0399 16.8411 21.1117 16.2958 20.9748 15.784C20.838 15.2722 20.5036 14.8356 20.0451 14.57L19.8951 14.49C19.5899 14.3138 19.3367 14.0601 19.1611 13.7545C18.9855 13.449 18.8938 13.1024 18.8951 12.75V12.25C18.8938 11.8976 18.9855 11.551 19.1611 11.2455C19.3367 10.9399 19.5899 10.6862 19.8951 10.51L20.0451 10.42C20.5036 10.1544 20.838 9.71783 20.9748 9.206C21.1117 8.69416 21.0399 8.14893 20.7751 7.69L20.5551 7.31C20.2896 6.85154 19.853 6.51717 19.3411 6.38031C18.8293 6.24344 18.2841 6.31526 17.8251 6.58L17.6751 6.66C17.3711 6.83554 17.0262 6.92795 16.6751 6.92795C16.3241 6.92795 15.9792 6.83554 15.6751 6.66L15.2451 6.41C14.9414 6.23464 14.6891 5.98248 14.5136 5.67884C14.3381 5.37519 14.2455 5.03073 14.2451 4.68V4.5C14.2451 3.96957 14.0344 3.46086 13.6594 3.08579C13.2843 2.71071 12.7756 2.5 12.2451 2.5Z" stroke="#007AFF" stroke-width="2" stroke-linecap="round" stroke-linejoin="round"/>
<path d="M12.0251 15.5C13.682 15.5 15.0251 14.1569 15.0251 12.5C15.0251 10.8431 13.682 9.5 12.0251 9.5C10.3683 9.5 9.02515 10.8431 9.02515 12.5C9.02515 14.1569 10.3683 15.5 12.0251 15.5Z" stroke="#007AFF" stroke-width="2" stroke-linecap="round" stroke-linejoin="round"/>
</svg>
