<svg width="25" height="24" viewBox="0 0 25 24" fill="none" xmlns="http://www.w3.org/2000/svg">

<path d="M12.5785 2H12.1385C11.6081 2 11.0994 2.21071 10.7243 2.58579C10.3492 2.96086 10.1385 3.46957 10.1385 4V4.18C10.1382 4.53073 10.0456 4.87519 9.87006 5.17884C9.69454 5.48248 9.44226 5.73464 9.13852 5.91L8.70852 6.16C8.40448 6.33554 8.0596 6.42795 7.70852 6.42795C7.35745 6.42795 7.01256 6.33554 6.70852 6.16L6.55852 6.08C6.09959 5.81526 5.55436 5.74344 5.04252 5.88031C4.53069 6.01717 4.09407 6.35154 3.82852 6.81L3.60852 7.19C3.34379 7.64893 3.27197 8.19416 3.40883 8.706C3.54569 9.21783 3.88006 9.65445 4.33852 9.92L4.48852 10.02C4.7908 10.1945 5.04214 10.4451 5.21757 10.7468C5.393 11.0486 5.48642 11.391 5.48852 11.74V12.25C5.48992 12.6024 5.39817 12.949 5.22257 13.2545C5.04696 13.5601 4.79373 13.8138 4.48852 13.99L4.33852 14.08C3.88006 14.3456 3.54569 14.7822 3.40883 15.294C3.27197 15.8058 3.34379 16.3511 3.60852 16.81L3.82852 17.19C4.09407 17.6485 4.53069 17.9828 5.04252 18.1197C5.55436 18.2566 6.09959 18.1847 6.55852 17.92L6.70852 17.84C7.01256 17.6645 7.35745 17.5721 7.70852 17.5721C8.0596 17.5721 8.40448 17.6645 8.70852 17.84L9.13852 18.09C9.44226 18.2654 9.69454 18.5175 9.87006 18.8212C10.0456 19.1248 10.1382 19.4693 10.1385 19.82V20C10.1385 20.5304 10.3492 21.0391 10.7243 21.4142C11.0994 21.7893 11.6081 22 12.1385 22H12.5785C13.109 22 13.6177 21.7893 13.9927 21.4142C14.3678 21.0391 14.5785 20.5304 14.5785 20V19.82C14.5789 19.4693 14.6715 19.1248 14.847 18.8212C15.0225 18.5175 15.2748 18.2654 15.5785 18.09L16.0085 17.84C16.3126 17.6645 16.6574 17.5721 17.0085 17.5721C17.3596 17.5721 17.7045 17.6645 18.0085 17.84L18.1585 17.92C18.6175 18.1847 19.1627 18.2566 19.6745 18.1197C20.1864 17.9828 20.623 17.6485 20.8885 17.19L21.1085 16.8C21.3733 16.3411 21.4451 15.7958 21.3082 15.284C21.1713 14.7722 20.837 14.3356 20.3785 14.07L20.2285 13.99C19.9233 13.8138 19.6701 13.5601 19.4945 13.2545C19.3189 12.949 19.2271 12.6024 19.2285 12.25V11.75C19.2271 11.3976 19.3189 11.051 19.4945 10.7455C19.6701 10.4399 19.9233 10.1862 20.2285 10.01L20.3785 9.92C20.837 9.65445 21.1713 9.21783 21.3082 8.706C21.4451 8.19416 21.3733 7.64893 21.1085 7.19L20.8885 6.81C20.623 6.35154 20.1864 6.01717 19.6745 5.88031C19.1627 5.74344 18.6175 5.81526 18.1585 6.08L18.0085 6.16C17.7045 6.33554 17.3596 6.42795 17.0085 6.42795C16.6574 6.42795 16.3126 6.33554 16.0085 6.16L15.5785 5.91C15.2748 5.73464 15.0225 5.48248 14.847 5.17884C14.6715 4.87519 14.5789 4.53073 14.5785 4.18V4C14.5785 3.46957 14.3678 2.96086 13.9927 2.58579C13.6177 2.21071 13.109 2 12.5785 2Z" stroke="#6C757D" stroke-width="2" stroke-linecap="round" stroke-linejoin="round"/>
<path d="M12.3585 15C14.0154 15 15.3585 13.6569 15.3585 12C15.3585 10.3431 14.0154 9 12.3585 9C10.7017 9 9.35852 10.3431 9.35852 12C9.35852 13.6569 10.7017 15 12.3585 15Z" stroke="#6C757D" stroke-width="2" stroke-linecap="round" stroke-linejoin="round"/>
</svg>
